<?xml version="1.0" standalone="no"?>
<!DOCTYPE svg PUBLIC "-//W3C//DTD SVG 20010904//EN"
 "http://www.w3.org/TR/2001/REC-SVG-20010904/DTD/svg10.dtd">
<svg version="1.0" xmlns="http://www.w3.org/2000/svg"
 width="700.000000pt" height="700.000000pt" viewBox="0 0 700.000000 700.000000"
 preserveAspectRatio="xMidYMid meet">
<metadata>
Created by potrace 1.14, written by Peter Selinger 2001-2017
</metadata>
<g transform="translate(0.000000,700.000000) scale(0.100000,-0.100000)"
fill="#000000" stroke="none">
<path d="M3420 5734 c-46 -20 -77 -50 -103 -99 l-22 -40 0 -1070 0 -1070 24
-49 c43 -86 145 -131 239 -105 58 16 123 79 140 135 16 54 18 2109 1 2167 -31
111 -172 178 -279 131z"/>
<path d="M1962 5129 c-47 -23 -168 -153 -266 -283 -206 -274 -351 -613 -417
-976 -25 -139 -36 -447 -20 -595 103 -954 769 -1725 1696 -1961 309 -79 698
-86 1015 -19 586 123 1115 493 1437 1003 180 285 294 611 333 951 18 156 8
496 -19 641 -83 443 -281 835 -580 1153 -74 79 -124 106 -194 107 -85 0 -174
-66 -196 -147 -24 -86 -7 -135 80 -231 264 -290 417 -595 485 -967 23 -124 26
-469 6 -585 -72 -409 -241 -739 -522 -1020 -281 -281 -611 -450 -1020 -522
-114 -20 -461 -17 -580 5 -515 94 -944 371 -1225 792 -361 540 -413 1225 -136
1810 82 173 177 314 311 460 88 96 114 149 108 215 -11 110 -84 182 -191 188
-49 2 -71 -2 -105 -19z"/>
</g>
</svg>
